Coordinates
version=1
nRows=16
nColumns=36
inDegrees=yes

Units are S.I. units (second, meters, Newtons, ...)
If the header above contains a line with 'inDegrees', this indicates whether rotational values are in degrees (yes) or radians (no).

endheader
time	pelvis_tilt	pelvis_list	pelvis_rotation	pelvis_tx	pelvis_ty	pelvis_tz	hip_flexion_r	hip_adduction_r	hip_rotation_r	knee_angle_r	knee_angle_r_beta	ankle_angle_r	subtalar_angle_r	mtp_angle_r	hip_flexion_l	hip_adduction_l	hip_rotation_l	knee_angle_l	knee_angle_l_beta	ankle_angle_l	subtalar_angle_l	mtp_angle_l	lumbar_extension	lumbar_bending	lumbar_rotation	arm_flex_r	arm_add_r	arm_rot_r	elbow_flex_r	pro_sup_r	arm_flex_l	arm_add_l	arm_rot_l	elbow_flex_l	pro_sup_l
      1.25000000	     -9.85883693	     -2.67590668	     -0.99290125	     -0.73691780	      1.56152356	     -0.58709114	     26.97902578	     -2.89729841	     -1.84021343	     51.99781614	      0.90753310	    -25.57879041	    -10.52876949	     -5.89441781	     29.73058085	     -9.19242420	     -5.69231028	     61.00976262	      1.06482123	    -31.82560892	    -17.08544445	     -5.89441781	    -13.80546710	     -1.13766957	     10.34827115	    -34.72650352	    -46.29538391	    -36.37508791	    125.67292110	    111.08812151	     45.85637416	    -47.06429291	     34.92099845	    115.35439382	    106.75245456
      1.26000000	    -10.01193147	     -2.60889188	     -1.14851122	     -0.72901687	      1.56272406	     -0.58636278	     28.07300219	     -3.03489041	     -1.86747147	     51.97676268	      0.90716564	    -24.71908333	    -10.59815461	     -5.92165947	     30.90012664	     -9.46638065	     -5.79659461	     61.02137982	      1.06502399	    -32.54022027	    -16.63400219	     -5.92165947	    -14.31944465	     -1.25978796	     10.24640903	    -37.12030743	    -45.25273292	    -37.96627116	    125.49135877	    110.90645067	     44.04694853	    -48.10597831	     33.33491774	    116.02100551	    106.90224521
      1.27000000	    -10.18500839	     -2.50119362	     -1.29095094	     -0.72101643	      1.56319047	     -0.58562874	     29.07377936	     -3.17516401	     -1.80278697	     51.59527186	      0.90050737	    -23.71008054	    -10.17650454	     -5.95142926	     31.93894674	     -9.71142141	     -6.01648323	     60.59128534	      1.05751743	    -33.19705299	    -16.15854593	     -5.95142926	    -14.82446890	     -1.40370784	     10.22336380	    -39.54696356	    -44.01792925	    -39.58886976	    125.27316426	    110.63947858	     42.18060146	    -48.93463078	     31.71683182	    116.52573284	    107.06880892
      1.28000000	    -10.35043937	     -2.38060950	     -1.42713877	     -0.71280480	      1.56293940	     -0.58500659	     29.92458964	     -3.31741209	     -1.69552577	     50.83255317	      0.88719542	    -22.64072360	     -9.65476889	     -5.97773403	     32.79329820	     -9.90643890	     -6.23155670	     59.71252399	      1.04218015	    -33.71851809	    -15.56816829	     -5.97773403	    -15.32265898	     -1.56897132	     10.23488589	    -41.82724175	    -42.62911902	    -41.00926057	    124.92817860	    110.39574302	     40.36401585	    -49.67045585	     30.20259875	    116.93212017	    107.18414140
      1.29000000	    -10.49266789	     -2.30098282	     -1.58087622	     -0.70430053	      1.56196610	     -0.58433795	     30.58090236	     -3.36942371	     -1.55806869	     49.65454027	      0.86663522	    -21.87905504	     -9.40995673	     -5.98876704	     33.44074533	    -10.10773429	     -6.40745637	     58.43141925	      1.01982065	    -33.96959885	    -14.99282330	     -5.98876704	    -15.72321037	     -1.77390201	     10.24835631	    -43.76400106	    -41.26813357	    -41.81183127	    124.22402784	    110.28248287	     38.84020789	    -50.47047846	     29.39168842	    117.26075902	    107.23378027
      1.30000000	    -10.73741666	     -2.25382709	     -1.83008801	     -0.69566035	      1.55971261	     -0.58364332	     31.31567785	     -3.36184326	     -1.42898738	     48.37802776	      0.84435587	    -20.57944333	     -8.56784293	     -6.01630231	     34.08503819	    -10.42016063	     -6.70937855	     56.92222678	      0.99348027	    -33.92899604	    -14.05698230	     -6.01630231	    -16.14511057	     -1.76589692	     10.51012267	    -46.35658512	    -39.55241019	    -43.36873938	    124.40296441	    110.14240359	     36.47678894	    -50.71461474	     27.08806352	    117.51080904	    107.19778520
      1.31000000	    -10.91069225	     -2.25154388	     -2.02156204	     -0.68667571	      1.55671366	     -0.58293242	     31.81423013	     -3.30831305	     -1.36245625	     46.79986520	      0.81681174	    -19.40249945	     -7.88201160	     -6.05630729	     34.51158393	    -10.71637340	     -6.94172449	     55.11416051	      0.96192357	    -33.52902139	    -13.20068316	     -6.05630729	    -16.52690352	     -1.76672829	     10.50105526	    -48.39470387	    -38.15263824	    -44.14101453	    124.16080605	    110.12515911	     34.07916515	    -51.21945506	     25.13455872	    117.81036195	    107.26620958
      1.32000000	    -11.09641399	     -2.13196189	     -2.17106268	     -0.67737721	      1.55291113	     -0.58241140	     32.25217595	     -3.39966476	     -1.27075403	     45.09194437	      0.78700290	    -18.32179076	     -7.28350974	     -6.17429750	     34.78386419	    -10.83086026	     -7.19592453	     52.96182063	      0.92435815	    -33.21729222	    -12.27555001	     -6.17429750	    -16.85524694	     -1.87844454	      9.85316747	    -49.61537875	    -37.32928184	    -44.03601225	    123.72241785	    110.49851090	     30.44492033	    -52.15113651	     22.07097573	    118.58166057	    107.48475964
      1.33000000	    -11.19976655	     -2.00670240	     -2.22909165	     -0.66804317	      1.54823621	     -0.58228447	     32.52860296	     -3.57056448	     -1.30270976	     43.22947826	      0.75449673	    -17.74505192	     -7.04721432	     -6.19389871	     34.88898425	    -10.81840668	     -7.36537166	     50.58515187	      0.88287745	    -33.14849216	    -11.67797279	     -6.19389871	    -17.24064158	     -1.93479851	      9.97701674	    -51.84794935	    -35.49784150	    -44.99455863	    123.59599935	    110.43455584	     28.52709332	    -52.42394289	     20.94716777	    118.61781562	    107.36687618
      1.34000000	    -11.43083816	     -1.97201994	     -2.18524284	     -0.65840364	      1.54234846	     -0.58225454	     32.80099741	     -3.68056895	     -1.35608693	     41.20922843	      0.71923672	    -16.81612526	     -6.11651290	     -6.30589161	     35.12350982	    -10.85163714	     -7.43657685	     48.20607953	      0.84135481	    -32.49098057	    -10.79321087	     -6.30589161	    -17.50854890	     -1.86068359	      8.95573480	    -53.08528150	    -34.83490604	    -44.62201409	    123.27515478	    111.02045931	     23.88422923	    -53.35656125	     16.89522316	    119.71733181	    107.49488859
      1.35000000	    -11.75353867	     -1.91300597	     -2.33510613	     -0.64868753	      1.53523667	     -0.58169652	     33.22948779	     -3.66019624	     -1.23947120	     39.25060645	      0.68505232	    -16.86058689	     -6.05375344	     -6.41448324	     35.26195260	    -10.99220878	     -7.74715281	     45.53659885	      0.79476358	    -32.18475944	    -10.23667309	     -6.41448324	    -17.55428590	     -1.87915671	      8.50311597	    -54.59558173	    -33.77754809	    -44.59918204	    123.10583145	    111.12324938	     20.14958754	    -53.81388508	     13.91993002	    120.51014440	    107.61832889
      1.36000000	    -12.07882391	     -1.86879004	     -2.50735355	     -0.63876854	      1.52700610	     -0.58084888	     33.59827228	     -3.57738011	     -0.98825594	     37.24026417	      0.64996522	    -16.88023886	     -5.44037262	     -6.50080866	     35.36024547	    -11.21503815	     -8.16198609	     42.86959793	      0.74821563	    -31.64417431	     -9.54630938	     -6.50080866	    -17.54524945	     -1.91818148	      7.97453297	    -56.08614020	    -32.81851585	    -44.28458573	    122.90221280	    111.19629094	     16.12479054	    -54.33712625	     10.71599311	    121.42195981	    107.61383151
      1.37000000	    -12.31726694	     -1.85578841	     -2.65107685	     -0.62859554	      1.51782671	     -0.58017621	     33.81985682	     -3.49588817	     -0.74688675	     35.22166165	      0.61473396	    -17.14476658	     -4.67135221	     -6.57539809	     35.31974741	    -11.44309039	     -8.60586153	     40.19074695	      0.70146086	    -31.10295643	     -8.98403638	     -6.57539809	    -17.57500275	     -1.90304904	      7.28277440	    -57.50411614	    -32.02943327	    -43.87920290	    122.79390943	    111.31995827	     11.63556567	    -54.76344916	      7.11115013	    122.48187219	    107.44824875
      1.38000000	    -12.46887832	     -1.77459834	     -2.84376542	     -0.61819149	      1.50769512	     -0.57958706	     33.98080608	     -3.47554334	     -0.40404345	     33.32543411	      0.58163855	    -17.67322825	     -3.74966483	     -6.65035665	     35.10929423	    -11.62929521	     -9.27834818	     37.45675042	      0.65374362	    -30.83935352	     -8.41789079	     -6.65035665	    -17.65975540	     -1.96302895	      6.39229679	    -58.79546558	    -31.44476471	    -43.32032859	    122.82284201	    111.47969130	      6.43985799	    -55.07502983	      2.85681212	    123.73593825	    107.19345589
      1.39000000	    -12.53828637	     -1.75145280	     -3.05088220	     -0.60772886	      1.49648856	     -0.57885443	     34.04259284	     -3.33090881	      0.15890432	     31.53764787	      0.55043579	    -18.22958965	     -3.12482009	     -6.64774458	     34.80209524	    -11.86664598	     -9.99028023	     34.74179293	      0.60635867	    -30.91360664	     -8.18152620	     -6.64774458	    -17.63042808	     -1.96177512	      6.67901001	    -60.98477959	    -29.60049432	    -43.71183409	    122.96678407	    111.81407546	      4.56222788	    -55.22872212	      2.19461694	    123.85807648	    107.44992551
      1.40000000	    -12.41279450	     -1.76771872	     -3.33339763	     -0.59650136	      1.48450535	     -0.57793965	     33.85473226	     -3.13829959	      0.70985586	     29.87083825	      0.52134448	    -18.25313439	     -2.05794093	     -6.73724138	     34.22352660	    -12.28089994	    -11.16677658	     32.13363258	      0.56083769	    -30.64646635	     -7.33786780	     -6.73724138	    -18.04525412	     -2.07404965	      4.45142648	    -61.07819331	    -30.76724596	    -41.97014640	    122.95178348	    111.21239861	     -5.02224598	    -55.12240426	     -6.57617314	    126.53910222	    106.73852594
